<svg width="150" height="79" viewBox="0 0 150 79" fill="none" xmlns="http://www.w3.org/2000/svg">
<rect width="150" height="79" fill="#F5F5F5"/>
<g clip-path="url(#clip0_0_1)">
<rect width="150" height="79" fill="white"/>
<path d="M143.433 55.8947L128.883 41.5788L114.567 56.1294L129.118 70.4453L143.433 55.8947ZM9.02033 59.4878L129.021 58.512L128.98 53.5121L8.97967 54.488L9.02033 59.4878Z" fill="#0500FF"/>
<g filter="url(#filter0_d_0_1)">
<path d="M9.59387 47.7188C9.59387 46.7604 9.72929 45.7812 10.0001 44.7812C10.271 43.7604 10.6355 42.9167 11.0939 42.25L14.0939 42.8125L17.4689 13.5625L12.6564 12.875C12.2605 11.8333 12.0626 10.7708 12.0626 9.6875C12.0626 8.58333 12.2814 7.45833 12.7189 6.3125C13.823 5.79167 15.7085 5.375 18.3751 5.0625C21.0626 4.72917 23.448 4.5625 25.5314 4.5625C27.4689 4.5625 29.8543 4.60417 32.6876 4.6875L33.7814 5.1875C34.2397 6.47917 34.8647 8.69792 35.6564 11.8438C36.4689 14.9688 37.8439 20.4896 39.7814 28.4062C40.0939 29.6354 40.4376 31.0312 40.8126 32.5938C41.8126 28.9688 43.0418 23.8438 44.5001 17.2188L45.2814 13.8125H45.4376L40.2501 12.9375C39.7501 11.7708 39.5001 10.5208 39.5001 9.1875C39.5001 8.3125 39.6147 7.36458 39.8439 6.34375C41.8647 5.69792 43.9689 5.23958 46.1564 4.96875C48.3647 4.69792 50.771 4.5625 53.3751 4.5625H54.4064C55.5105 4.5625 57.0835 4.60417 59.1251 4.6875L60.2189 5.1875C61.5522 10.0208 62.823 15.8854 64.0314 22.7812C65.2605 29.6562 66.1876 35.9688 66.8126 41.7188L66.9064 42.5C66.9272 42.6458 66.9793 43.1458 67.0626 44C67.146 44.8333 67.1876 45.6354 67.1876 46.4062C67.1876 47.3438 67.0939 48.2708 66.9064 49.1875C66.5939 50.5625 66.0314 51.6979 65.2189 52.5938C64.4064 52.9271 63.5522 53.1771 62.6564 53.3438C61.7814 53.5312 60.7605 53.625 59.5939 53.625C58.448 53.625 57.3022 53.4896 56.1564 53.2188C55.0314 52.9688 54.2814 52.5938 53.9064 52.0938L55.0314 44.9375L53.1564 25.2812L53.3126 14.8125H52.3439L50.8126 25.5312C48.771 33.0938 46.9064 38.9479 45.2189 43.0938C45.8022 44.2396 46.3022 45.5104 46.7189 46.9062C47.1564 48.3021 47.4272 49.6667 47.5314 51C46.6564 51.8333 45.4585 52.4792 43.9376 52.9375C42.4376 53.3958 40.8439 53.625 39.1564 53.625C37.4272 53.625 35.8439 53.3854 34.4064 52.9062C32.9897 52.4271 31.9585 51.7604 31.3126 50.9062C31.4168 48.8021 31.9376 46.7708 32.8751 44.8125L27.3126 24.7188L25.0001 15.25L23.9376 15.4062L25.4689 26C25.3855 29.6875 25.2501 33.4375 25.0626 37.25C24.8751 41.0625 24.6668 44.0833 24.4376 46.3125H24.4689C24.3022 47.625 23.8543 48.7917 23.1251 49.8125C22.4168 50.8125 21.5105 51.5938 20.4064 52.1562C19.323 52.7188 18.146 53 16.8751 53C13.5418 53 11.1355 51.5625 9.65637 48.6875C9.61471 48.2708 9.59387 47.9479 9.59387 47.7188Z" fill="#0500FF"/>
</g>
<path d="M56.9689 29.875C56.9689 23.5625 57.0626 18.7188 57.2501 15.3438H57.2189L52.4376 14.6875C52.1668 13.9167 51.9585 13.0729 51.8126 12.1562C51.6668 11.2188 51.5939 10.3125 51.5939 9.4375C51.5939 8.77083 51.646 8.04167 51.7501 7.25C54.2918 6.39583 57.6147 5.73958 61.7189 5.28125C65.823 4.80208 69.7397 4.5625 73.4689 4.5625C76.6564 4.5625 79.396 4.8125 81.6876 5.3125C83.9793 5.79167 85.896 6.89583 87.4376 8.625C89.0001 10.3333 89.7814 12.8854 89.7814 16.2812C89.7814 17.6146 89.4168 19.125 88.6876 20.8125C87.9585 22.4792 87.0001 24.0521 85.8126 25.5312C84.646 26.9896 83.4272 28.1146 82.1564 28.9062C83.7397 29.1771 85.2085 29.7292 86.5626 30.5625C87.9376 31.375 89.0522 32.4896 89.9064 33.9062C90.7605 35.3021 91.1876 36.9583 91.1876 38.875C91.1876 41.4375 90.698 43.6458 89.7189 45.5C88.7397 47.3542 87.3439 48.8854 85.5314 50.0938C81.9897 52.4479 76.9897 53.625 70.5314 53.625C67.9897 53.625 65.7293 53.5729 63.7501 53.4688C61.7918 53.3854 59.9793 53.2188 58.3126 52.9688C57.4168 48.1354 56.9689 40.4375 56.9689 29.875ZM74.7501 27.9062C75.2918 26.3854 75.7501 24.4583 76.1251 22.125C76.521 19.7708 76.7605 17.8542 76.8439 16.375C76.7397 16.1875 76.2085 16.0312 75.2501 15.9062C74.2918 15.7604 73.0522 15.6875 71.5314 15.6875C71.0522 15.6875 70.2501 15.7188 69.1251 15.7812C68.9585 20.4688 68.7085 24.6771 68.3751 28.4062L71.5314 28.1562L74.7501 27.9062ZM73.1876 45.4375C74.9376 45.4375 76.1876 45.3646 76.9376 45.2188C77.4585 44.9062 77.9168 44.3438 78.3126 43.5312C78.7293 42.7188 79.0418 41.8333 79.2501 40.875C79.4585 39.8958 79.5626 39.0208 79.5626 38.25C79.1876 37.1667 77.323 36.625 73.9689 36.625C72.5522 36.625 70.9272 36.7188 69.0939 36.9062C68.5939 36.9688 68.2189 37 67.9689 37L67.8751 41.5625C67.8543 42.0208 67.8335 42.5521 67.8126 43.1562C67.7918 43.7604 67.7814 44.4375 67.7814 45.1875C69.1564 45.3542 70.6564 45.4375 72.2814 45.4375H73.1876Z" fill="#0500FF"/>
<path d="M98.8727 17.5476C98.8852 16.2742 98.9162 15.1143 98.9656 14.0679L97.6905 13.8327C97.5928 13.441 97.5259 13.0966 97.4897 12.7994C97.4536 12.5021 97.4372 12.1855 97.4405 11.8496L97.4662 11.6155C97.4908 11.5064 97.5034 11.4166 97.504 11.3463L99.2069 10.9881C99.2507 10.5041 99.3459 9.95816 99.4926 9.3502C99.6392 8.74224 99.7921 8.29451 99.9512 8.007C100.203 7.82198 100.505 7.68432 100.858 7.59404C101.21 7.50376 101.589 7.46063 101.996 7.46463C102.339 7.46802 102.671 7.50645 102.991 7.57992C103.318 7.64565 103.602 7.73439 103.844 7.84615C103.864 8.112 103.873 8.41678 103.87 8.76052C103.864 9.32299 103.831 9.95941 103.769 10.6698L105.835 10.3151C106.119 10.818 106.258 11.3623 106.252 11.9482C106.248 12.3545 106.194 12.7211 106.089 13.0482C105.992 13.3754 105.856 13.7452 105.68 14.1575C105.163 14.2384 104.456 14.2861 103.557 14.3007C103.435 15.573 103.175 17.4416 102.775 19.9065L102.713 20.3044L102.736 20.328L105.498 19.4998C106.064 19.9819 106.404 20.7197 106.519 21.7131C106.519 21.7677 106.262 22.023 105.75 22.4789C105.246 22.9271 104.613 23.3428 103.851 23.7259C103.09 24.1012 102.263 24.2845 101.373 24.2757C99.8182 24.2604 98.9995 23.3031 98.9167 21.4037C98.8715 20.4423 98.8568 19.1569 98.8727 17.5476ZM107.29 17.2907C107.303 15.9392 107.541 14.7345 108.005 13.6765C108.469 12.6185 109.176 11.7856 110.127 11.1778C111.087 10.5622 112.277 10.2615 113.699 10.2755C114.183 10.2802 114.738 10.317 115.362 10.3856C115.994 10.4465 116.599 10.5384 117.176 10.6613L117.409 10.8277C117.758 11.0733 118.014 11.2712 118.176 11.4212C118.347 11.5635 118.524 11.7645 118.709 12.0242C118.705 12.446 118.641 13.0275 118.516 13.7684C118.4 14.5017 118.252 15.1839 118.074 15.815C117.896 16.4461 117.728 16.8507 117.57 17.0288C117.311 17.1591 116.892 17.2214 116.314 17.2157C116.033 17.2129 115.768 17.1907 115.518 17.1492C115.276 17.0999 115.093 17.0395 114.969 16.968L114.744 14.7977C114.628 14.6638 114.36 14.5556 113.939 14.4734C113.526 14.3833 113.143 14.3366 112.792 14.3331C112.682 14.3321 112.581 14.3389 112.487 14.3536C112.304 14.719 112.162 15.1863 112.063 15.7557C111.963 16.3251 111.911 16.9066 111.905 17.5003C111.897 18.3597 112.03 19.0915 112.305 19.6958C112.581 20.2923 113.152 20.5948 114.019 20.6033C114.449 20.6076 114.871 20.5414 115.287 20.4049C115.71 20.2684 116.243 20.0588 116.887 19.7761C117.154 19.6537 117.354 19.5659 117.487 19.5125C117.796 19.8281 118.039 20.1586 118.216 20.5041C118.392 20.8496 118.505 21.2921 118.554 21.8317C118.048 22.4127 117.339 22.9878 116.428 23.5569C115.523 24.1262 114.47 24.4049 113.267 24.393C111.986 24.3804 110.891 24.061 109.983 23.4348C109.083 22.8009 108.404 21.9504 107.946 20.8833C107.495 19.8085 107.277 18.611 107.29 17.2907ZM119.884 14.1687C119.725 13.6593 119.62 13.2051 119.569 12.8061C119.526 12.4072 119.508 11.8914 119.514 11.2586C119.64 11.1505 119.844 11.0275 120.127 10.8897C120.41 10.744 120.747 10.6184 121.138 10.5129C121.53 10.4074 121.933 10.3567 122.347 10.3607C123.292 10.3701 123.958 10.5798 124.345 10.9898C124.739 11.4 124.932 12.0113 124.924 12.8238C124.92 13.2769 124.847 13.8895 124.707 14.6616C124.476 15.9015 124.36 16.5528 124.36 16.6153C124.359 16.6543 124.386 16.6937 124.441 16.7333C124.495 16.765 124.553 16.7812 124.616 16.7819C124.686 16.7826 124.733 16.7557 124.757 16.7012L124.879 16.2336L125.147 15.2401C125.544 13.7987 126.126 12.6364 126.892 11.7533C127.659 10.8624 128.616 10.4226 129.765 10.4339C130.624 10.4423 131.321 10.6367 131.857 11.017C132.4 11.3896 132.79 11.8817 133.026 12.4935C133.262 13.0974 133.376 13.7626 133.369 14.4891C133.36 15.4735 133.255 16.578 133.055 17.8026C132.856 19.0195 132.595 20.1576 132.272 21.2169C131.957 22.2529 131.441 23.0721 130.724 23.6744C130.015 24.269 129.133 24.5611 128.078 24.5508C127.696 24.547 127.247 24.4801 126.733 24.35C126.226 24.2278 125.584 24.0144 124.805 23.7098L124.315 25.92L124.338 25.9436L126.578 25.8134C126.724 26.0257 126.831 26.2807 126.898 26.5783C126.973 26.8837 127.036 27.232 127.087 27.6232L127.12 27.8579C127.12 27.8891 126.946 28.0319 126.6 28.2864C126.254 28.5486 125.794 28.7862 125.222 28.9994C124.649 29.2203 123.992 29.3271 123.25 29.3198C121.57 29.3032 120.739 28.4005 120.757 26.6115L120.765 25.8029C120.788 23.4202 120.825 21.2994 120.875 19.4404C120.932 17.5737 121.027 15.891 121.159 14.3922L119.884 14.1687ZM128.062 21.4215C128.354 20.3697 128.51 18.7735 128.532 16.633C128.535 16.2658 128.519 15.9687 128.482 15.7418C128.304 15.5135 128.048 15.3977 127.712 15.3943C127.601 15.487 127.22 16.1005 126.568 17.2347C125.917 18.3612 125.436 19.2276 125.125 19.8339L125.119 20.3964C125.546 20.6975 126.04 20.9484 126.6 21.1493C127.161 21.3423 127.59 21.4403 127.886 21.4432C127.957 21.4439 128.015 21.4367 128.062 21.4215Z" fill="#0500FF"/>
</g>
<defs>
<filter id="filter0_d_0_1" x="5.59387" y="4.5625" width="65.5938" height="57.0625" filterUnits="userSpaceOnUse" color-interpolation-filters="sRGB">
<feFlood flood-opacity="0" result="BackgroundImageFix"/>
<feColorMatrix in="SourceAlpha" type="matrix" values="0 0 0 0 0 0 0 0 0 0 0 0 0 0 0 0 0 0 127 0" result="hardAlpha"/>
<feOffset dy="4"/>
<feGaussianBlur stdDeviation="2"/>
<feComposite in2="hardAlpha" operator="out"/>
<feColorMatrix type="matrix" values="0 0 0 0 0 0 0 0 0 0 0 0 0 0 0 0 0 0 0.25 0"/>
<feBlend mode="normal" in2="BackgroundImageFix" result="effect1_dropShadow_0_1"/>
<feBlend mode="normal" in="SourceGraphic" in2="effect1_dropShadow_0_1" result="shape"/>
</filter>
<clipPath id="clip0_0_1">
<rect width="150" height="79" fill="white"/>
</clipPath>
</defs>
</svg>
